# xmcd
#
# Track frame offsets:
#	150
#	16958
#	30494
#	45280
#	62296
#	81630
#	99500
#	117219
#	135163
#	150171
#	164726
#	180344
#	196255
#	212330
#	226996
#	244430
#	258650
#	275907
#	291988
#	306652
#	321886
#
# Disc length: 4489 seconds
#
# Revision: 1
# Processed by: cddbd v1.5.2PL0 Copyright (c) Steve Scherf et al.
# Submitted via: audiograbber 1.83.01
#
DISCID=22118715
DTITLE=Various Artist - Pro Disc 111 - September 2009
DYEAR=2009
DGENRE=Pop
TTITLE0=Arctic Monkeys - Crying Lightning
TTITLE1=Booty Luv - Say It
TTITLE2=Disco Dice - The Letter
TTITLE3=Livvi Franc Ft Pitbull - Now I'm That Chick
TTITLE4=Jay-Z - D.O.A. (Death Of Auto Tune)
TTITLE5=Jeremih - Birthday Sex
TTITLE6=Jonas Brothers - Fly With Me
TTITLE7=Kid Cudi Ft Kanye West - Make Her Say
TTITLE8=La Roux - I'm Not Your Toy
TTITLE9=LMFAO Ft Pitbull - I'm In Miami Trick (Remix)
TTITLE10=Madonna - Celebration
TTITLE11=Mika - We Are Golden
TTITLE12=Milow - Ayo Technology
TTITLE13=Sean Paul - So Fine
TTITLE14=Busta Rhymes Ft Estelle - World Go Round
TTITLE15=Shakira - She Wolf
TTITLE16=Simian Mobile Disco - Audacity Of Huge
TTITLE17=Jordin Sparks - S.O.S. (Let The Music Play)
TTITLE18=Sugababes - Get Sexy
TTITLE19=Velvet - Dancing With Tears In My Eyes
TTITLE20=Wale Ft Lady Gaga - Chillin'
EXTD=
EXTT0=
EXTT1=
EXTT2=
EXTT3=
EXTT4=
EXTT5=
EXTT6=
EXTT7=
EXTT8=
EXTT9=
EXTT10=
EXTT11=
EXTT12=
EXTT13=
EXTT14=
EXTT15=
EXTT16=
EXTT17=
EXTT18=
EXTT19=
EXTT20=
PLAYORDER=
